<svg class="marks" width="256" height="249" version="1.1" xmlns="http://www.w3.org/2000/svg" xmlns:xlink="http://www.w3.org/1999/xlink"><g transform="translate(42,6)"><g class="mark-group"><g transform="translate(0,0)"><rect class="background" width="1" height="1" style="fill: none;"></rect><g class="mark-group root"><g transform="translate(0,0)"><rect class="background" width="200" height="200" style="fill: none;"></rect><g class="mark-group"><g transform="translate(0,200)"><rect class="background" width="0" height="0" style="pointer-events: none; fill: none;"></rect><g class="mark-rule" style="pointer-events: none;"><line transform="translate(0.5,-200)" x2="0" y2="200" style="fill: none; stroke: #000; stroke-opacity: 0.15; opacity: 1;"></line><line transform="translate(40.5,-200)" x2="0" y2="200" style="fill: none; stroke: #000; stroke-opacity: 0.15; opacity: 1;"></line><line transform="translate(80.5,-200)" x2="0" y2="200" style="fill: none; stroke: #000; stroke-opacity: 0.15; opacity: 1;"></line><line transform="translate(120.5,-200)" x2="0" y2="200" style="fill: none; stroke: #000; stroke-opacity: 0.15; opacity: 1;"></line><line transform="translate(160.5,-200)" x2="0" y2="200" style="fill: none; stroke: #000; stroke-opacity: 0.15; opacity: 1;"></line><line transform="translate(200.5,-200)" x2="0" y2="200" style="fill: none; stroke: #000; stroke-opacity: 0.15; opacity: 1;"></line></g><g class="mark-rule" style="pointer-events: none;"><line transform="translate(0.5,0)" x2="0" y2="6" style="fill: none; stroke: #000; stroke-width: 1; opacity: 1;"></line><line transform="translate(40.5,0)" x2="0" y2="6" style="fill: none; stroke: #000; stroke-width: 1; opacity: 1;"></line><line transform="translate(80.5,0)" x2="0" y2="6" style="fill: none; stroke: #000; stroke-width: 1; opacity: 1;"></line><line transform="translate(120.5,0)" x2="0" y2="6" style="fill: none; stroke: #000; stroke-width: 1; opacity: 1;"></line><line transform="translate(160.5,0)" x2="0" y2="6" style="fill: none; stroke: #000; stroke-width: 1; opacity: 1;"></line><line transform="translate(200.5,0)" x2="0" y2="6" style="fill: none; stroke: #000; stroke-width: 1; opacity: 1;"></line></g><g class="mark-rule" style="pointer-events: none;"></g><g class="mark-text"><text text-anchor="start" transform="translate(0.5,19)" style="font: 11px sans-serif; fill: #000; opacity: 1;">0</text><text text-anchor="start" transform="translate(40.5,19)" style="font: 11px sans-serif; fill: #000; opacity: 1;">0.2</text><text text-anchor="start" transform="translate(80.5,19)" style="font: 11px sans-serif; fill: #000; opacity: 1;">0.4</text><text text-anchor="start" transform="translate(120.5,19)" style="font: 11px sans-serif; fill: #000; opacity: 1;">0.6</text><text text-anchor="start" transform="translate(160.5,19)" style="font: 11px sans-serif; fill: #000; opacity: 1;">0.8</text><text text-anchor="start" transform="translate(200.5,19)" style="font: 11px sans-serif; fill: #000; opacity: 1;">1</text></g><g class="mark-path" style="pointer-events: none;"><path transform="translate(0.5,0.5)" d="M0,6V0H200V6" style="fill: none; stroke: #000; stroke-width: 1;"></path></g><g class="mark-text"><text text-anchor="middle" transform="translate(100,35)" style="font: bold 11px sans-serif; fill: #000;">Bin mean</text></g></g></g><g class="mark-group"><g transform="translate(0,0)"><rect class="background" width="0" height="0" style="pointer-events: none; fill: none;"></rect><g class="mark-rule" style="pointer-events: none;"></g><g class="mark-rule" style="pointer-events: none;"></g><g class="mark-rule" style="pointer-events: none;"></g><g class="mark-text"></g><g class="mark-path" style="pointer-events: none;"><path transform="translate(0.5,0.5)" d="M-6,0H0V200H-6" style="fill: none; stroke: #000; stroke-width: 1;"></path></g><g class="mark-text"><text text-anchor="middle" transform="translate(-30,100) rotate(-90) translate(0,3)" style="font: bold 11px sans-serif; fill: #000;">Probability</text></g></g></g><g class="mark-rect marks"><rect transform="translate(187,200)" width="2" height="0" style="fill: #4682b4;"></rect><rect transform="translate(187,200)" width="2" height="0" style="fill: #4682b4;"></rect><rect transform="translate(187,200)" width="2" height="0" style="fill: #4682b4;"></rect><rect transform="translate(187,200)" width="2" height="0" style="fill: #4682b4;"></rect><rect transform="translate(187,200)" width="2" height="0" style="fill: #4682b4;"></rect><rect transform="translate(187,200)" width="2" height="0" style="fill: #4682b4;"></rect><rect transform="translate(187,200)" width="2" height="0" style="fill: #4682b4;"></rect><rect transform="translate(187,200)" width="2" height="0" style="fill: #4682b4;"></rect><rect transform="translate(187,200)" width="2" height="0" style="fill: #4682b4;"></rect><rect transform="translate(187,200)" width="2" height="0" style="fill: #4682b4;"></rect><rect transform="translate(187,200)" width="2" height="0" style="fill: #4682b4;"></rect><rect transform="translate(187,200)" width="2" height="0" style="fill: #4682b4;"></rect><rect transform="translate(187,200)" width="2" height="0" style="fill: #4682b4;"></rect><rect transform="translate(187,200)" width="2" height="0" style="fill: #4682b4;"></rect><rect transform="translate(187,200)" width="2" height="0" style="fill: #4682b4;"></rect><rect transform="translate(187,200)" width="2" height="0" style="fill: #4682b4;"></rect><rect transform="translate(187,200)" width="2" height="0" style="fill: #4682b4;"></rect><rect transform="translate(187,200)" width="2" height="0" style="fill: #4682b4;"></rect><rect transform="translate(187,200)" width="2" height="0" style="fill: #4682b4;"></rect><rect transform="translate(187,200)" width="2" height="0" style="fill: #4682b4;"></rect><rect transform="translate(187,200)" width="2" height="0" style="fill: #4682b4;"></rect><rect transform="translate(187,200)" width="2" height="0" style="fill: #4682b4;"></rect><rect transform="translate(187,200)" width="2" height="0" style="fill: #4682b4;"></rect><rect transform="translate(187,200)" width="2" height="0" style="fill: #4682b4;"></rect><rect transform="translate(187,200)" width="2" height="0" style="fill: #4682b4;"></rect><rect transform="translate(187,200)" width="2" height="0" style="fill: #4682b4;"></rect><rect transform="translate(187,200)" width="2" height="0" style="fill: #4682b4;"></rect><rect transform="translate(187,200)" width="2" height="0" style="fill: #4682b4;"></rect><rect transform="translate(187,200)" width="2" height="0" style="fill: #4682b4;"></rect><rect transform="translate(187,200)" width="2" height="0" style="fill: #4682b4;"></rect></g></g></g></g></g></g></svg>